<svg width="29" height="27" viewBox="0 0 29 27" fill="none" xmlns="http://www.w3.org/2000/svg">
<path d="M13.5489 0.927052C13.8483 0.0057416 15.1517 0.00573993 15.4511 0.927051L17.98 8.71024C18.1138 9.12226 18.4978 9.40122 18.931 9.40122H27.1147C28.0835 9.40122 28.4862 10.6408 27.7025 11.2102L21.0818 16.0205C20.7313 16.2752 20.5846 16.7265 20.7185 17.1385L23.2474 24.9217C23.5468 25.843 22.4923 26.6092 21.7086 26.0398L15.0878 21.2295C14.7373 20.9748 14.2627 20.9748 13.9122 21.2295L7.29144 26.0398C6.50773 26.6092 5.45325 25.843 5.7526 24.9217L8.28151 17.1385C8.41538 16.7265 8.26873 16.2752 7.91824 16.0205L1.29747 11.2102C0.513753 10.6408 0.916527 9.40122 1.88525 9.40122H10.069C10.5022 9.40122 10.8862 9.12226 11.02 8.71024L13.5489 0.927052Z" fill="black"/>
</svg>
