<svg width="47" height="37" viewBox="0 0 47 37" fill="none" xmlns="http://www.w3.org/2000/svg">
<path d="M4.5 21.0981C2.49999 19.9434 2.5 17.0566 4.5 15.9019L23.25 5.0766C25.25 3.9219 27.75 5.36528 27.75 7.67468L27.75 29.3253C27.75 31.6347 25.25 33.0781 23.25 31.9234L4.5 21.0981Z" fill="black"/>
<rect x="2.4668" y="11.5107" width="12.3333" height="13.9778" rx="3" fill="black"/>
<path d="M31 23C33.7614 23 36 20.7614 36 18C36 15.2386 33.7614 13 31 13" stroke="black" stroke-width="4"/>
<path d="M36 30C40.9706 30 45 24.8513 45 18.5C45 12.1487 40.9706 7 36 7" stroke="black" stroke-width="4"/>
</svg>
