<svg width="41" height="40" viewBox="0 0 41 40" fill="none" xmlns="http://www.w3.org/2000/svg">
<path d="M20.5 4.74121C29.1261 4.74126 36.1191 11.5689 36.1191 19.9902C36.119 28.4114 29.126 35.2382 20.5 35.2383C11.874 35.2383 4.88105 28.4114 4.88086 19.9902C4.88086 11.5689 11.8738 4.74121 20.5 4.74121ZM20.499 14.5791C17.4383 14.5792 14.957 17.0011 14.957 19.9893C14.957 22.9774 17.4382 25.4003 20.499 25.4004C23.5599 25.4004 26.042 22.9775 26.042 19.9893C26.042 17.001 23.5599 14.5791 20.499 14.5791Z" fill="black"/>
<path d="M16.5673 0.839518C16.646 0.355533 17.064 0 17.5543 0H23.4458C23.9362 0 24.3542 0.355532 24.4329 0.839517L25.1924 5.51062C25.2913 6.11896 24.8217 6.6711 24.2053 6.6711H16.7949C16.1785 6.6711 15.7089 6.11896 15.8078 5.51062L16.5673 0.839518Z" fill="black"/>
<path d="M24.4327 38.8314C24.354 39.3154 23.936 39.6709 23.4457 39.6709L17.5542 39.6709C17.0638 39.6709 16.6458 39.3154 16.5671 38.8314L15.8076 34.1603C15.7087 33.5519 16.1783 32.9998 16.7947 32.9998L24.2051 32.9998C24.8215 32.9998 25.2911 33.5519 25.1922 34.1603L24.4327 38.8314Z" fill="black"/>
<path d="M40.1531 15.6757C40.6405 15.7512 41 16.1708 41 16.6639L41 22.3623C41 22.8555 40.6405 23.275 40.1531 23.3505L35.3198 24.0995C34.7137 24.1934 34.1667 23.7246 34.1667 23.1113L34.1667 15.9149C34.1667 15.3016 34.7137 14.8328 35.3198 14.9267L40.1531 15.6757Z" fill="black"/>
<path d="M4.20328 9.03145C3.91091 8.63831 3.95472 8.096 4.30661 7.75247L8.45352 3.70401C8.80541 3.36048 9.36091 3.31771 9.7636 3.60314L13.7042 6.3962C14.2077 6.75304 14.2652 7.46471 13.8252 7.8942L8.59869 12.9966C8.15877 13.4261 7.42979 13.37 7.06427 12.8785L4.20328 9.03145Z" fill="black"/>
<path d="M36.7967 30.9676C37.0891 31.3607 37.0453 31.903 36.6934 32.2466L32.5465 36.295C32.1946 36.6385 31.6391 36.6813 31.2364 36.3959L27.2958 33.6028C26.7923 33.246 26.7348 32.5343 27.1748 32.1048L32.4013 27.0024C32.8412 26.5729 33.5702 26.629 33.9357 27.1205L36.7967 30.9676Z" fill="black"/>
<path d="M31.2368 3.60368C31.6395 3.31826 32.195 3.36103 32.5468 3.70456L36.6938 7.75302C37.0456 8.09655 37.0895 8.63886 36.7971 9.032L33.9361 12.879C33.5706 13.3705 32.8416 13.4267 32.4017 12.9972L27.1751 7.89474C26.7352 7.46526 26.7927 6.75359 27.2962 6.39675L31.2368 3.60368Z" fill="black"/>
<path d="M9.76323 36.3963C9.36054 36.6817 8.80504 36.639 8.45316 36.2954L4.30624 32.247C3.95436 31.9035 3.91055 31.3611 4.20291 30.968L7.0639 27.121C7.42943 26.6295 8.1584 26.5733 8.59833 27.0028L13.8249 32.1053C14.2648 32.5347 14.2073 33.2464 13.7038 33.6033L9.76323 36.3963Z" fill="black"/>
<path d="M0.846867 23.3506C0.359525 23.2751 -6.37014e-08 22.8556 -8.57823e-08 22.3624L-3.40924e-07 16.6641C-3.63005e-07 16.1709 0.359524 15.7514 0.846866 15.6759L5.6802 14.9269C6.28629 14.8329 6.83333 15.3017 6.83333 15.9151L6.83333 23.1114C6.83333 23.7247 6.28629 24.1935 5.6802 24.0996L0.846867 23.3506Z" fill="black"/>
</svg>
