<svg width="102" height="82" viewBox="0 0 102 82" fill="none" xmlns="http://www.w3.org/2000/svg">
<path d="M77 79C77 80.6569 75.6569 82 74 82H62C60.3431 82 59 80.6569 59 79V58C59 56.3431 57.6569 55 56 55H47C45.3431 55 44 56.3431 44 58V79C44 80.6569 42.6569 82 41 82H27C25.3431 82 24 80.6569 24 79V45.999C24 44.3422 25.3431 42.999 27 42.999H74C75.6569 42.999 77 44.3422 77 45.999V79Z" fill="black"/>
<path d="M48.8084 2.34457C49.9941 1.07607 52.0059 1.07607 53.1916 2.34457L90.4481 42.2014C92.2401 44.1185 90.8807 47.25 88.2565 47.25H13.7436C11.1193 47.25 9.75992 44.1185 11.5519 42.2014L48.8084 2.34457Z" fill="black"/>
<rect x="66" y="4.99951" width="12" height="31" rx="3" fill="black"/>
</svg>
