<svg width="50" height="48" viewBox="0 0 50 48" fill="none" xmlns="http://www.w3.org/2000/svg">
<path d="M24.5 43C34.7173 43 43 34.4934 43 24C43 13.5066 34.7173 5 24.5 5C14.2827 5 6 13.5066 6 24C6 34.4934 14.2827 43 24.5 43Z" stroke="black" stroke-width="4"/>
<path d="M24.5 6C26.3115 6 28.1737 7.68423 29.638 11.0032C31.0799 14.2718 32 18.8649 32 24C32 29.1351 31.0799 33.7282 29.638 36.9968C28.1737 40.3158 26.3115 42 24.5 42C22.6885 42 20.8263 40.3158 19.362 36.9968C17.9201 33.7282 17 29.1351 17 24C17 18.8649 17.9201 14.2718 19.362 11.0032C20.8263 7.68423 22.6885 6 24.5 6Z" stroke="black" stroke-width="3"/>
<path d="M39 37C39 34.2385 32.5081 32 24.5 32C16.4919 32 10 34.2385 10 37" stroke="black" stroke-width="3"/>
<path d="M39 11C39 13.7615 32.5081 16 24.5 16C16.4919 16 10 13.7615 10 11" stroke="black" stroke-width="3"/>
<path d="M6 24H44" stroke="black" stroke-width="3"/>
</svg>
