<svg width="37" height="37" viewBox="0 0 37 37" fill="none" xmlns="http://www.w3.org/2000/svg">
<path d="M28 2C30.2091 2 32 3 32 6C32 9 28 9 28 9H10V28C10 28 22.5 28 28 28C30.0757 28 32 29.2909 32 31.5C32 33.7091 30.2091 35 28 35H6C3.79086 35 2 33.2091 2 31V6C2 3.79086 3.79086 2 6 2H28Z" fill="black"/>
<path d="M34.976 17.7087C35.4941 18.109 35.4941 18.891 34.976 19.2913L27.771 24.8588C26.9751 25.4738 25.8713 24.661 26.2225 23.7184L27.9299 19.1349C28.0111 18.9169 28.0138 18.6775 27.9375 18.4577L26.1022 13.1735C25.776 12.2343 26.8716 11.4462 27.6583 12.0541L34.976 17.7087Z" fill="black"/>
<path d="M14 18.5C14 17.6569 14.6556 16.959 15.4971 16.9064L27.5049 16.1559C28.857 16.0714 30 17.1453 30 18.5C30 19.8547 28.857 20.9286 27.5049 20.8441L15.4971 20.0936C14.6556 20.041 14 19.3431 14 18.5Z" fill="black"/>
</svg>
