<svg width="95" height="99" viewBox="0 0 95 99" fill="none" xmlns="http://www.w3.org/2000/svg">
<path d="M24.4423 21.5684C48.7622 -1.91831 91.9303 17.4119 85.9308 46.9124C78.43 70.262 61.4283 67.9129 54.4283 71.9129C47.429 75.913 52.4302 82.996 48.9293 85.9122C45.4283 88.8285 37.7505 92.0078 22.4298 79.9112C7.10904 67.8143 4.93071 40.4118 24.4423 21.5684ZM32.6174 55.7786C30.711 52.8143 26.762 51.9565 23.7976 53.8627C20.8334 55.7693 19.9763 59.7185 21.8827 62.6828C23.7893 65.6468 27.7376 66.5038 30.7019 64.5975C33.666 62.691 34.5237 58.7429 32.6174 55.7786ZM33.6172 34.7783C31.7108 31.8142 27.7627 30.9567 24.7984 32.8628C21.8339 34.7693 20.976 38.7181 22.8825 41.6826C24.789 44.6468 28.7379 45.5048 31.7023 43.5984C34.6665 41.6919 35.5236 37.7427 33.6172 34.7783ZM52.5625 22.6672C50.564 19.7641 46.5902 19.03 43.6871 21.0282C40.784 23.0267 40.0507 27.0007 42.0491 29.9039C44.0476 32.807 48.0216 33.5404 50.9247 31.5419C53.8275 29.5434 54.5607 25.5702 52.5625 22.6672ZM70.5615 28.6677C68.5631 25.7648 64.5899 25.0318 61.6868 27.03C58.7837 29.0284 58.05 33.0013 60.0481 35.9044C62.0466 38.8075 66.0203 39.5417 68.9235 37.5434C71.8264 35.5449 72.5599 31.5708 70.5615 28.6677Z" fill="black"/>
</svg>
