<svg width="77" height="80" viewBox="0 0 77 80" fill="none" xmlns="http://www.w3.org/2000/svg">
<path fill-rule="evenodd" clip-rule="evenodd" d="M0.419728 38.0586C3.08668 24.8918 15.8208 0.157763 45.4197 12.5586C48.7779 13.9656 51.8134 15.6834 54.0135 18.253L47.1189 25.5235C46.9183 25.735 46.7406 25.9678 46.5906 26.2178L44.617 29.5088C44.2504 30.12 44.0653 30.7942 44.0486 31.4649C43.8354 31.4718 43.62 31.4857 43.4041 31.5108C40.9132 31.8007 38.3067 33.5407 36.4568 36.4766C35.3403 38.2487 33.6574 41.444 31.615 43.6485C30.6887 44.6484 28.4008 47.8134 28.3172 48.7071C28.2336 49.6008 28.5162 50.4783 29.1883 51.168C29.1883 51.168 29.4158 51.5121 29.6385 51.6299C29.8613 51.7478 30.2742 51.7422 30.2742 51.7422C36.5783 52.8503 43.8682 51.1112 47.8504 47.2305C49.9278 45.206 51.0141 42.5688 51.2947 40.1397C51.4255 39.0073 51.3865 37.8166 51.1336 36.7041C51.6393 36.5258 52.1167 36.2447 52.5301 35.8594L55.6629 32.9385C55.8237 32.7886 55.9722 32.6255 56.1063 32.4512L57.5467 30.5772C57.3463 34.3654 56.3755 38.9521 54.4197 44.5586C53.9141 45.5346 54.0783 47.6713 54.9158 48.9785C56.0183 50.6991 57.8918 51.4666 59.1004 50.6924C59.349 50.5331 61.2441 49.8648 61.3973 49.6133C63.9868 48.7869 66.9483 47.8423 69.4197 54.0586C71.4197 61.2556 60.4187 70.5611 52.4188 75.5606C36.419 85.5592 -4.57982 79.5586 0.419728 38.0586ZM29.9197 62.0586C27.1584 62.0587 24.9199 64.2974 24.9197 67.0586C24.9197 69.82 27.1583 72.0586 29.9197 72.0586C32.681 72.0584 34.9197 69.8199 34.9197 67.0586C34.9196 64.2975 32.6809 62.0588 29.9197 62.0586ZM16.9197 54.0586C14.1584 54.0587 11.9199 56.2974 11.9197 59.0586C11.9197 61.82 14.1583 64.0586 16.9197 64.0586C19.681 64.0584 21.9197 61.8199 21.9197 59.0586C21.9196 56.2975 19.6809 54.0588 16.9197 54.0586ZM11.9197 39.0586C9.15844 39.0587 6.91988 41.2974 6.91973 44.0586C6.91973 46.82 9.15835 49.0586 11.9197 49.0586C14.681 49.0584 16.9197 46.8199 16.9197 44.0586C16.9196 41.2975 14.6809 39.0588 11.9197 39.0586ZM16.9197 24.0586C14.1584 24.0587 11.9199 26.2974 11.9197 29.0586C11.9197 31.82 14.1583 34.0586 16.9197 34.0586C19.681 34.0584 21.9197 31.8199 21.9197 29.0586C21.9196 26.2975 19.6809 24.0588 16.9197 24.0586ZM30.9197 16.0586C28.1584 16.0587 25.9199 18.2974 25.9197 21.0586C25.9197 23.82 28.1583 26.0586 30.9197 26.0586C33.681 26.0584 35.9197 23.8199 35.9197 21.0586C35.9196 18.2975 33.6809 16.0588 30.9197 16.0586Z" fill="black"/>
<path d="M46.8182 33.1455C46.0203 32.5244 45.8115 31.4054 46.3317 30.5383L48.3061 27.2473C48.3811 27.1222 48.4696 27.0058 48.57 26.8999L71.1088 3.13434C71.7856 2.42069 72.8814 2.3066 73.6907 2.86553C74.6306 3.51463 74.8349 4.81867 74.1385 5.72407L54.5209 31.2322C54.4538 31.3194 54.3797 31.4009 54.2992 31.4759L51.166 34.3967C50.4475 35.0665 49.3489 35.1154 48.5737 34.512L46.8182 33.1455Z" fill="black"/>
<path d="M48.0001 35.0006C49.997 37.0495 49.767 42.4882 46.3521 45.8161C42.9373 49.1441 32.5003 51.4999 30.5184 49.7907C29.3196 48.7569 34 42 38.2016 37.3164C41.9026 32.6325 46.0033 32.9516 48.0001 35.0006Z" fill="black"/>
</svg>
