<svg width="15" height="43" viewBox="0 0 15 43" fill="none" xmlns="http://www.w3.org/2000/svg">
<path d="M7.49479 14.87C5.60012 14.87 3.99546 14.1933 2.68079 12.84C1.36612 11.448 0.708789 9.766 0.708789 7.794C0.708789 5.86067 1.36612 4.21733 2.68079 2.864C3.99546 1.472 5.60012 0.775997 7.49479 0.775997C9.35079 0.775997 10.9361 1.472 12.2508 2.864C13.6041 4.21733 14.2808 5.86067 14.2808 7.794C14.2808 9.766 13.6041 11.448 12.2508 12.84C10.9361 14.1933 9.35079 14.87 7.49479 14.87ZM7.49479 43C5.90946 43 4.73012 42.5553 3.95679 41.666C3.22212 40.738 2.71946 39.3653 2.44879 37.548C2.21679 35.692 2.10079 33.0627 2.10079 29.66C2.10079 26.7987 2.23612 24.5367 2.50679 22.874C2.81612 21.2113 3.35746 19.974 4.13079 19.162C4.90412 18.35 6.02546 17.944 7.49479 17.944C9.08012 17.944 10.2401 18.408 10.9748 19.336C11.7481 20.2253 12.2508 21.598 12.4828 23.454C12.7535 25.2713 12.8888 27.8813 12.8888 31.284C12.8888 34.1453 12.7341 36.4073 12.4248 38.07C12.1541 39.7327 11.6321 40.97 10.8588 41.782C10.0855 42.594 8.96412 43 7.49479 43Z" fill="black"/>
</svg>
