<svg width="50" height="48" viewBox="0 0 50 48" fill="none" xmlns="http://www.w3.org/2000/svg">
<path d="M20.9995 36.8727C20.9995 39.3727 19.1322 42.779 14.7251 44.0721C10.318 45.3653 6.13072 44.3186 5.37247 41.7345C4.61421 39.1503 7.57217 36.0071 11.9792 34.7139C16.3863 33.4208 20.2412 34.2886 20.9995 36.8727Z" fill="black"/>
<path d="M40.9996 33.6325C40.9996 36.1325 39.1323 39.5387 34.7252 40.8319C30.3181 42.125 26.1308 41.0784 25.3725 38.4942C24.6143 35.91 27.5723 32.7668 31.9793 31.4737C36.3864 30.1806 40.2413 31.0483 40.9996 33.6325Z" fill="black"/>
<path d="M17 14.6133H21V36.873L17 39.6133V14.6133Z" fill="black"/>
<path d="M37 11.373H41V33.6328L37 36.373V11.373Z" fill="black"/>
<path d="M17 10.1137L41 3.61328V16.1356L17 22.6133V10.1137Z" fill="black"/>
</svg>
