<svg width="46" height="69" viewBox="0 0 46 69" fill="none" xmlns="http://www.w3.org/2000/svg">
<path d="M22.8909 46.068C20.7349 46.068 19.0362 45.3493 17.7949 43.912C16.6189 42.4093 16.0309 40.5473 16.0309 38.326C16.0309 34.5367 16.9129 31.7273 18.6769 29.898C19.1996 29.31 20.0489 28.4933 21.2249 27.448C22.4662 26.272 23.3482 25.3573 23.8709 24.704C24.3936 24.0507 24.6549 23.332 24.6549 22.548C24.6549 20.8493 23.7729 20 22.0089 20C21.2249 20 20.5389 20.2613 19.9509 20.784C19.4282 21.3067 19.1669 21.96 19.1669 22.744C19.1669 24.9 18.2522 26.6967 16.4229 28.134C14.6589 29.506 12.4376 30.192 9.7589 30.192C7.08023 30.192 4.92423 29.2447 3.2909 27.35C1.65757 25.39 0.840899 22.6787 0.840899 19.216C0.840899 16.3413 1.78823 13.434 3.6829 10.494C5.57757 7.554 8.22357 5.13667 11.6209 3.242C15.0182 1.34733 18.8402 0.399995 23.0869 0.399995C27.3989 0.399995 31.2209 1.31466 34.5529 3.144C37.8849 4.908 40.4656 7.26 42.2949 10.2C44.1896 13.14 45.1369 16.2433 45.1369 19.51C45.1369 22.842 44.5162 25.6513 43.2749 27.938C42.0989 30.1593 40.6942 31.8907 39.0609 33.132C37.4929 34.308 35.6309 35.4187 33.4749 36.464C32.2336 37.1173 31.3516 37.64 30.8289 38.032C30.3062 38.424 30.0449 38.8487 30.0449 39.306C30.0449 41.0047 29.3916 42.5727 28.0849 44.01C26.8436 45.382 25.1122 46.068 22.8909 46.068ZM22.9889 48.616C20.2449 48.616 17.8602 49.6287 15.8349 51.654C13.8096 53.6793 12.7969 56.064 12.7969 58.808C12.7969 61.552 13.8096 63.9367 15.8349 65.962C17.8602 67.9873 20.2449 69 22.9889 69C25.7329 69 28.1176 67.9873 30.1429 65.962C32.1682 63.9367 33.1809 61.552 33.1809 58.808C33.1809 56.064 32.1682 53.6793 30.1429 51.654C28.1176 49.6287 25.7329 48.616 22.9889 48.616Z" fill="black"/>
</svg>
