<svg width="50" height="48" viewBox="0 0 50 48" fill="none" xmlns="http://www.w3.org/2000/svg">
<path d="M5.5 27.0981C3.49999 25.9434 3.5 23.0566 5.5 21.9019L24.25 11.0766C26.25 9.9219 28.75 11.3653 28.75 13.6747L28.75 35.3253C28.75 37.6347 26.25 39.0781 24.25 37.9234L5.5 27.0981Z" fill="black"/>
<rect x="3.4668" y="17.5107" width="12.3333" height="13.9778" rx="3" fill="black"/>
<path d="M32 29C34.7614 29 37 26.7614 37 24C37 21.2386 34.7614 19 32 19" stroke="black" stroke-width="4"/>
<path d="M37 36C41.9706 36 46 30.8513 46 24.5C46 18.1487 41.9706 13 37 13" stroke="black" stroke-width="4"/>
<line x1="1.72806" y1="2.1934" x2="47.7281" y2="46.1934" stroke="black" stroke-width="5"/>
</svg>
