<svg width="50" height="48" viewBox="0 0 50 48" fill="none" xmlns="http://www.w3.org/2000/svg">
<path d="M5.5 27.0978C3.49999 25.9431 3.5 23.0563 5.5 21.9016L24.25 11.0763C26.25 9.92162 28.75 11.365 28.75 13.6744V35.325C28.75 37.6344 26.25 39.0778 24.25 37.9231L5.5 27.0978Z" fill="black"/>
<path d="M12.8001 17.5107H6.4668C4.80994 17.5107 3.4668 18.8539 3.4668 20.5107V28.4885C3.4668 30.1454 4.80994 31.4885 6.4668 31.4885H12.8001C14.457 31.4885 15.8001 30.1454 15.8001 28.4885V20.5107C15.8001 18.8539 14.457 17.5107 12.8001 17.5107Z" fill="black"/>
<path d="M32 29C34.7614 29 37 26.7614 37 24C37 21.2386 34.7614 19 32 19" stroke="black" stroke-width="4"/>
<path d="M37 36C41.9706 36 46 30.8513 46 24.5C46 18.1487 41.9706 13 37 13" stroke="black" stroke-width="4"/>
</svg>
