<svg width="104" height="105" viewBox="0 0 104 105" fill="none" xmlns="http://www.w3.org/2000/svg">
<path d="M33.2048 32.9976C33.5557 32.6571 33.9133 32.3274 34.2751 32.0055L44.8795 37.7931C43.4567 38.6526 42.1084 39.6857 40.8644 40.8926C32.018 49.4752 31.8042 63.6041 40.3867 72.4505C48.9693 81.2967 63.0982 81.5107 71.9446 72.9282C80.7909 64.3456 81.0047 50.2167 72.4223 41.3702C72.326 41.271 72.2274 41.1742 72.1298 41.0771L80.0146 33.4071C80.1152 33.5082 80.2177 33.608 80.3173 33.7107C93.13 46.9174 92.8108 68.0103 79.6042 80.8232C66.3975 93.6359 45.3046 93.3166 32.4917 80.1101C19.6789 66.9034 19.9982 45.8104 33.2048 32.9976Z" fill="black"/>
<path d="M48.2698 22.6261C50.5318 22.0296 52.5758 24.1364 51.9112 26.3793L45.3481 48.5252C44.6962 50.7252 41.9163 51.4086 40.3186 49.7618L24.5472 33.5056C22.9495 31.8588 23.7168 29.1009 25.9354 28.5158L48.2698 22.6261Z" fill="black"/>
</svg>
