<svg width="21" height="19" viewBox="0 0 21 19" fill="none" xmlns="http://www.w3.org/2000/svg">
<path d="M9.41222 0.818651C9.71158 -0.10266 11.015 -0.102658 11.3143 0.818653L12.9452 5.83791C13.0791 6.24993 13.463 6.52889 13.8962 6.52889H19.1738C20.1425 6.52889 20.5453 7.7685 19.7616 8.33791L15.492 11.44C15.1415 11.6946 14.9948 12.146 15.1287 12.558L16.7595 17.5773C17.0589 18.4986 16.0044 19.2647 15.2207 18.6953L10.9511 15.5932C10.6006 15.3386 10.126 15.3386 9.7755 15.5932L5.50586 18.6953C4.72215 19.2647 3.66767 18.4986 3.96702 17.5773L5.59788 12.558C5.73175 12.146 5.58509 11.6946 5.2346 11.44L0.964972 8.3379C0.181258 7.7685 0.584035 6.52889 1.55276 6.52889H6.83031C7.26354 6.52889 7.6475 6.24993 7.78137 5.83791L9.41222 0.818651Z" fill="white"/>
</svg>
