<svg width="359" height="118" viewBox="0 0 359 118" fill="none" xmlns="http://www.w3.org/2000/svg">
<mask id="path-1-outside-1_2300_446" maskUnits="userSpaceOnUse" x="0" y="0" width="359" height="118" fill="black">
<rect fill="white" width="359" height="118"/>
<path d="M111.054 30.105C111.054 36.485 108.396 41.125 103.079 44.025C97.8591 46.8283 89.3041 48.52 77.4141 49.1C77.8007 53.74 77.9941 59.7333 77.9941 67.08C77.9941 77.3267 77.4141 85.5433 76.2541 91.73C75.1907 97.82 73.3057 102.363 70.5991 105.36C67.8924 108.26 64.1224 109.71 59.2891 109.71C54.5524 109.71 50.9274 108.163 48.4141 105.07C45.9007 101.977 44.1607 97.385 43.1941 91.295C42.2274 85.205 41.7441 77.1333 41.7441 67.08C41.7441 60.3133 41.8891 54.32 42.1791 49.1C34.1557 48.7133 27.6791 47.8917 22.7491 46.635C17.9157 45.2817 14.3391 43.3 12.0191 40.69C9.69906 38.08 8.53906 34.5517 8.53906 30.105C8.53906 24.6917 10.3757 20.4383 14.0491 17.345C17.7224 14.2517 23.2324 12.0767 30.5791 10.82C37.9257 9.56333 47.5441 8.935 59.4341 8.935C71.4207 8.935 81.1357 9.56333 88.5791 10.82C96.0224 12.0767 101.629 14.2517 105.399 17.345C109.169 20.4383 111.054 24.6917 111.054 30.105ZM132.869 110C125.715 110 119.384 108.598 113.874 105.795C108.364 102.992 104.062 99.0767 100.969 94.05C97.972 88.9267 96.4736 83.175 96.4736 76.795C96.4736 70.5117 97.972 64.7117 100.969 59.395C104.062 54.0783 108.315 49.825 113.729 46.635C119.142 43.445 125.28 41.85 132.144 41.85C138.33 41.85 143.792 43.1067 148.529 45.62C153.265 48.1333 156.89 51.4683 159.404 55.625C161.917 59.685 163.174 63.9383 163.174 68.385C163.174 75.635 160.419 80.9517 154.909 84.335C149.495 87.6217 143.019 89.265 135.479 89.265C130.452 89.265 126.199 88.6367 122.719 87.38C125.619 92.1167 130.404 94.485 137.074 94.485C139.78 94.485 142.68 94.1467 145.774 93.47C146.934 93.18 148.045 93.035 149.109 93.035C151.235 93.035 152.927 93.5667 154.184 94.63C155.537 95.6933 156.214 97.1433 156.214 98.98C156.214 101.977 154.377 104.587 150.704 106.81C147.03 108.937 141.085 110 132.869 110ZM123.154 69.69C124.024 71.0433 125.184 72.0583 126.634 72.735C128.18 73.315 129.872 73.605 131.709 73.605C133.835 73.605 135.672 73.1217 137.219 72.155C138.862 71.1883 139.684 69.9317 139.684 68.385C139.684 66.645 138.959 65.1467 137.509 63.89C136.155 62.6333 134.174 62.005 131.564 62.005C128.954 62.005 126.875 62.8267 125.329 64.47C123.879 66.0167 123.154 67.7567 123.154 69.69ZM224.833 110C221.353 110 218.743 109.033 217.003 107.1C215.359 105.167 214.344 102.798 213.958 99.995C213.571 97.1917 213.378 93.5667 213.378 89.12C213.378 83.4167 212.604 79.0183 211.058 75.925C209.511 72.8317 206.998 71.285 203.518 71.285C200.328 71.285 197.911 72.8317 196.268 75.925C194.721 78.9217 193.948 83.0783 193.948 88.395C193.948 93.5183 193.803 97.385 193.513 99.995C193.223 102.605 192.256 104.925 190.613 106.955C188.969 108.888 186.263 109.855 182.493 109.855C176.983 109.855 173.116 106.327 170.893 99.27C168.669 92.1167 167.558 83.755 167.558 74.185C167.558 50.985 172.439 39.385 182.203 39.385C184.909 39.385 187.133 40.0617 188.873 41.415C190.613 42.6717 191.821 44.5083 192.498 46.925C193.754 45.5717 195.688 44.3633 198.298 43.3C201.004 42.2367 203.856 41.705 206.853 41.705C217.486 41.705 225.413 45.5717 230.633 53.305C235.949 61.0383 238.608 71.5267 238.608 84.77C238.608 92.6 237.593 98.7867 235.563 103.33C233.533 107.777 229.956 110 224.833 110ZM270.871 110C262.365 110 255.598 108.598 250.571 105.795C245.545 102.992 243.031 99.3667 243.031 94.92C243.031 92.02 243.998 89.7967 245.931 88.25C247.961 86.6067 250.523 85.785 253.616 85.785C255.356 85.785 256.758 86.0267 257.821 86.51C258.885 86.9933 259.948 87.67 261.011 88.54C261.785 89.2167 262.413 89.7 262.896 89.99C263.476 90.28 264.153 90.425 264.926 90.425C266.956 90.425 267.971 89.7 267.971 88.25C267.971 86.8967 267.44 85.8817 266.376 85.205C265.313 84.4317 263.476 83.5133 260.866 82.45C258.45 81.4833 256.855 80.8067 256.081 80.42C251.635 78.2933 248.348 75.78 246.221 72.88C244.095 69.98 243.031 66.8867 243.031 63.6C243.031 59.9267 244.336 56.4467 246.946 53.16C249.653 49.7767 253.423 47.07 258.256 45.04C263.186 42.9133 268.841 41.85 275.221 41.85C280.731 41.85 285.71 42.6233 290.156 44.17C294.7 45.7167 298.276 47.8433 300.886 50.55C303.496 53.16 304.801 56.06 304.801 59.25C304.801 62.2467 303.835 64.5183 301.901 66.065C300.065 67.6117 297.551 68.385 294.361 68.385C293.105 68.385 292.09 68.2883 291.316 68.095C290.64 67.805 289.721 67.37 288.561 66.79C287.885 66.4033 287.16 66.065 286.386 65.775C285.71 65.485 284.936 65.34 284.066 65.34C283.293 65.34 282.616 65.63 282.036 66.21C281.456 66.6933 281.166 67.3217 281.166 68.095C281.166 69.545 282.23 70.6083 284.356 71.285C289.963 73.1217 294.458 75.4417 297.841 78.245C301.321 81.0483 303.061 84.915 303.061 89.845C303.061 96.1283 300.113 101.058 294.216 104.635C288.416 108.212 280.635 110 270.871 110ZM318.226 15.315C321.03 10.7717 325.718 8.49999 332.291 8.49999C338.575 8.49999 343.118 10.675 345.921 15.025C348.821 19.375 350.271 24.6433 350.271 30.83C350.271 35.9533 349.788 41.6567 348.821 47.94C347.855 54.1267 346.501 59.685 344.761 64.615C343.891 67.0317 342.393 69.1583 340.266 70.995C338.236 72.735 335.578 73.605 332.291 73.605C329.005 73.605 326.298 72.735 324.171 70.995C322.045 69.1583 320.546 67.0317 319.676 64.615C317.936 59.7817 316.583 54.3683 315.616 48.375C314.65 42.285 314.166 36.775 314.166 31.845C314.166 25.2717 315.52 19.7617 318.226 15.315ZM342.731 104.78C339.735 107.777 336.206 109.275 332.146 109.275C328.086 109.275 324.558 107.777 321.561 104.78C318.565 101.783 317.066 98.255 317.066 94.195C317.066 90.135 318.565 86.6067 321.561 83.61C324.558 80.6133 328.086 79.115 332.146 79.115C336.206 79.115 339.735 80.6133 342.731 83.61C345.728 86.6067 347.226 90.135 347.226 94.195C347.226 98.255 345.728 101.783 342.731 104.78Z"/>
</mask>
<path d="M111.054 30.105C111.054 36.485 108.396 41.125 103.079 44.025C97.8591 46.8283 89.3041 48.52 77.4141 49.1C77.8007 53.74 77.9941 59.7333 77.9941 67.08C77.9941 77.3267 77.4141 85.5433 76.2541 91.73C75.1907 97.82 73.3057 102.363 70.5991 105.36C67.8924 108.26 64.1224 109.71 59.2891 109.71C54.5524 109.71 50.9274 108.163 48.4141 105.07C45.9007 101.977 44.1607 97.385 43.1941 91.295C42.2274 85.205 41.7441 77.1333 41.7441 67.08C41.7441 60.3133 41.8891 54.32 42.1791 49.1C34.1557 48.7133 27.6791 47.8917 22.7491 46.635C17.9157 45.2817 14.3391 43.3 12.0191 40.69C9.69906 38.08 8.53906 34.5517 8.53906 30.105C8.53906 24.6917 10.3757 20.4383 14.0491 17.345C17.7224 14.2517 23.2324 12.0767 30.5791 10.82C37.9257 9.56333 47.5441 8.935 59.4341 8.935C71.4207 8.935 81.1357 9.56333 88.5791 10.82C96.0224 12.0767 101.629 14.2517 105.399 17.345C109.169 20.4383 111.054 24.6917 111.054 30.105ZM132.869 110C125.715 110 119.384 108.598 113.874 105.795C108.364 102.992 104.062 99.0767 100.969 94.05C97.972 88.9267 96.4736 83.175 96.4736 76.795C96.4736 70.5117 97.972 64.7117 100.969 59.395C104.062 54.0783 108.315 49.825 113.729 46.635C119.142 43.445 125.28 41.85 132.144 41.85C138.33 41.85 143.792 43.1067 148.529 45.62C153.265 48.1333 156.89 51.4683 159.404 55.625C161.917 59.685 163.174 63.9383 163.174 68.385C163.174 75.635 160.419 80.9517 154.909 84.335C149.495 87.6217 143.019 89.265 135.479 89.265C130.452 89.265 126.199 88.6367 122.719 87.38C125.619 92.1167 130.404 94.485 137.074 94.485C139.78 94.485 142.68 94.1467 145.774 93.47C146.934 93.18 148.045 93.035 149.109 93.035C151.235 93.035 152.927 93.5667 154.184 94.63C155.537 95.6933 156.214 97.1433 156.214 98.98C156.214 101.977 154.377 104.587 150.704 106.81C147.03 108.937 141.085 110 132.869 110ZM123.154 69.69C124.024 71.0433 125.184 72.0583 126.634 72.735C128.18 73.315 129.872 73.605 131.709 73.605C133.835 73.605 135.672 73.1217 137.219 72.155C138.862 71.1883 139.684 69.9317 139.684 68.385C139.684 66.645 138.959 65.1467 137.509 63.89C136.155 62.6333 134.174 62.005 131.564 62.005C128.954 62.005 126.875 62.8267 125.329 64.47C123.879 66.0167 123.154 67.7567 123.154 69.69ZM224.833 110C221.353 110 218.743 109.033 217.003 107.1C215.359 105.167 214.344 102.798 213.958 99.995C213.571 97.1917 213.378 93.5667 213.378 89.12C213.378 83.4167 212.604 79.0183 211.058 75.925C209.511 72.8317 206.998 71.285 203.518 71.285C200.328 71.285 197.911 72.8317 196.268 75.925C194.721 78.9217 193.948 83.0783 193.948 88.395C193.948 93.5183 193.803 97.385 193.513 99.995C193.223 102.605 192.256 104.925 190.613 106.955C188.969 108.888 186.263 109.855 182.493 109.855C176.983 109.855 173.116 106.327 170.893 99.27C168.669 92.1167 167.558 83.755 167.558 74.185C167.558 50.985 172.439 39.385 182.203 39.385C184.909 39.385 187.133 40.0617 188.873 41.415C190.613 42.6717 191.821 44.5083 192.498 46.925C193.754 45.5717 195.688 44.3633 198.298 43.3C201.004 42.2367 203.856 41.705 206.853 41.705C217.486 41.705 225.413 45.5717 230.633 53.305C235.949 61.0383 238.608 71.5267 238.608 84.77C238.608 92.6 237.593 98.7867 235.563 103.33C233.533 107.777 229.956 110 224.833 110ZM270.871 110C262.365 110 255.598 108.598 250.571 105.795C245.545 102.992 243.031 99.3667 243.031 94.92C243.031 92.02 243.998 89.7967 245.931 88.25C247.961 86.6067 250.523 85.785 253.616 85.785C255.356 85.785 256.758 86.0267 257.821 86.51C258.885 86.9933 259.948 87.67 261.011 88.54C261.785 89.2167 262.413 89.7 262.896 89.99C263.476 90.28 264.153 90.425 264.926 90.425C266.956 90.425 267.971 89.7 267.971 88.25C267.971 86.8967 267.44 85.8817 266.376 85.205C265.313 84.4317 263.476 83.5133 260.866 82.45C258.45 81.4833 256.855 80.8067 256.081 80.42C251.635 78.2933 248.348 75.78 246.221 72.88C244.095 69.98 243.031 66.8867 243.031 63.6C243.031 59.9267 244.336 56.4467 246.946 53.16C249.653 49.7767 253.423 47.07 258.256 45.04C263.186 42.9133 268.841 41.85 275.221 41.85C280.731 41.85 285.71 42.6233 290.156 44.17C294.7 45.7167 298.276 47.8433 300.886 50.55C303.496 53.16 304.801 56.06 304.801 59.25C304.801 62.2467 303.835 64.5183 301.901 66.065C300.065 67.6117 297.551 68.385 294.361 68.385C293.105 68.385 292.09 68.2883 291.316 68.095C290.64 67.805 289.721 67.37 288.561 66.79C287.885 66.4033 287.16 66.065 286.386 65.775C285.71 65.485 284.936 65.34 284.066 65.34C283.293 65.34 282.616 65.63 282.036 66.21C281.456 66.6933 281.166 67.3217 281.166 68.095C281.166 69.545 282.23 70.6083 284.356 71.285C289.963 73.1217 294.458 75.4417 297.841 78.245C301.321 81.0483 303.061 84.915 303.061 89.845C303.061 96.1283 300.113 101.058 294.216 104.635C288.416 108.212 280.635 110 270.871 110ZM318.226 15.315C321.03 10.7717 325.718 8.49999 332.291 8.49999C338.575 8.49999 343.118 10.675 345.921 15.025C348.821 19.375 350.271 24.6433 350.271 30.83C350.271 35.9533 349.788 41.6567 348.821 47.94C347.855 54.1267 346.501 59.685 344.761 64.615C343.891 67.0317 342.393 69.1583 340.266 70.995C338.236 72.735 335.578 73.605 332.291 73.605C329.005 73.605 326.298 72.735 324.171 70.995C322.045 69.1583 320.546 67.0317 319.676 64.615C317.936 59.7817 316.583 54.3683 315.616 48.375C314.65 42.285 314.166 36.775 314.166 31.845C314.166 25.2717 315.52 19.7617 318.226 15.315ZM342.731 104.78C339.735 107.777 336.206 109.275 332.146 109.275C328.086 109.275 324.558 107.777 321.561 104.78C318.565 101.783 317.066 98.255 317.066 94.195C317.066 90.135 318.565 86.6067 321.561 83.61C324.558 80.6133 328.086 79.115 332.146 79.115C336.206 79.115 339.735 80.6133 342.731 83.61C345.728 86.6067 347.226 90.135 347.226 94.195C347.226 98.255 345.728 101.783 342.731 104.78Z" fill="white"/>
<path d="M103.079 44.025L106.864 51.073L106.887 51.0606L106.91 51.0482L103.079 44.025ZM77.4141 49.1L77.0243 41.1095L68.7541 41.5129L69.4417 49.7644L77.4141 49.1ZM76.2541 91.73L68.3911 90.2557L68.3819 90.3048L68.3733 90.354L76.2541 91.73ZM70.5991 105.36L76.4475 110.819L76.4921 110.771L76.5359 110.722L70.5991 105.36ZM48.4141 105.07L54.623 100.025L48.4141 105.07ZM43.1941 91.295L35.293 92.5491L43.1941 91.295ZM42.1791 49.1L50.1667 49.5438L50.6138 41.4972L42.5642 41.1093L42.1791 49.1ZM22.7491 46.635L20.592 54.3387L20.6822 54.364L20.773 54.3871L22.7491 46.635ZM12.0191 40.69L6.03979 46.0049L12.0191 40.69ZM14.0491 17.345L8.89598 11.2257L8.89598 11.2257L14.0491 17.345ZM30.5791 10.82L29.2302 2.93453L30.5791 10.82ZM105.399 17.345L110.474 11.1604L105.399 17.345ZM111.054 30.105H103.054C103.054 32.1697 102.632 33.4982 102.119 34.3931C101.619 35.2659 100.784 36.164 99.2482 37.0018L103.079 44.025L106.91 51.0482C110.691 48.986 113.844 46.1141 116.002 42.3469C118.147 38.6018 119.054 34.4203 119.054 30.105H111.054ZM103.079 44.025L99.2941 36.977C95.7272 38.8926 88.6892 40.5405 77.0243 41.1095L77.4141 49.1L77.8038 57.0905C89.9189 56.4995 99.9909 54.7641 106.864 51.073L103.079 44.025ZM77.4141 49.1L69.4417 49.7644C69.8026 54.0953 69.9941 59.8444 69.9941 67.08H77.9941H85.9941C85.9941 59.6223 85.7989 53.3847 85.3864 48.4356L77.4141 49.1ZM77.9941 67.08H69.9941C69.9941 77.0983 69.4213 84.761 68.3911 90.2557L76.2541 91.73L84.117 93.2043C85.4068 86.3257 85.9941 77.555 85.9941 67.08H77.9941ZM76.2541 91.73L68.3733 90.354C67.4419 95.6885 65.9558 98.5656 64.6622 99.9977L70.5991 105.36L76.5359 110.722C80.6557 106.161 82.9396 99.9515 84.1348 93.106L76.2541 91.73ZM70.5991 105.36L64.7506 99.9015C63.8795 100.835 62.4266 101.71 59.2891 101.71V109.71V117.71C65.8182 117.71 71.9053 115.685 76.4475 110.819L70.5991 105.36ZM59.2891 109.71V101.71C56.4569 101.71 55.3253 100.89 54.623 100.025L48.4141 105.07L42.2052 110.115C46.5295 115.437 52.6479 117.71 59.2891 117.71V109.71ZM48.4141 105.07L54.623 100.025C53.3556 98.4654 51.9516 95.4363 51.0951 90.0409L43.1941 91.295L35.293 92.5491C36.3699 99.3337 38.4459 105.488 42.2052 110.115L48.4141 105.07ZM43.1941 91.295L51.0951 90.0409C50.2222 84.5414 49.7441 76.9398 49.7441 67.08H41.7441H33.7441C33.7441 77.3269 34.2326 85.8686 35.293 92.5491L43.1941 91.295ZM41.7441 67.08H49.7441C49.7441 60.4209 49.8869 54.5805 50.1667 49.5438L42.1791 49.1L34.1914 48.6562C33.8912 54.0595 33.7441 60.2058 33.7441 67.08H41.7441ZM42.1791 49.1L42.5642 41.1093C34.8077 40.7355 28.925 39.9534 24.7251 38.8829L22.7491 46.635L20.773 54.3871C26.4331 55.8299 33.5038 56.6912 41.794 57.0907L42.1791 49.1ZM22.7491 46.635L24.9061 38.9313C20.9358 37.8196 18.9458 36.441 17.9983 35.3751L12.0191 40.69L6.03979 46.0049C9.73229 50.159 14.8956 52.7437 20.592 54.3387L22.7491 46.635ZM12.0191 40.69L17.9983 35.3751C17.3055 34.5956 16.5391 33.1448 16.5391 30.105H8.53906H0.539062C0.539062 35.9585 2.09265 41.5644 6.03979 46.0049L12.0191 40.69ZM8.53906 30.105H16.5391C16.5391 26.7144 17.5767 24.8331 19.2021 23.4643L14.0491 17.345L8.89598 11.2257C3.17476 16.0436 0.539062 22.6689 0.539062 30.105H8.53906ZM14.0491 17.345L19.2021 23.4643C21.3447 21.66 25.2757 19.8433 31.9279 18.7055L30.5791 10.82L29.2302 2.93453C21.1891 4.30998 14.1001 6.84329 8.89598 11.2257L14.0491 17.345ZM30.5791 10.82L31.9279 18.7055C38.6471 17.5561 47.7638 16.935 59.4341 16.935V8.935V0.934996C47.3244 0.934996 37.2044 1.57053 29.2302 2.93453L30.5791 10.82ZM59.4341 8.935V16.935C71.2014 16.935 80.4221 17.5561 87.2473 18.7084L88.5791 10.82L89.9109 2.93163C81.8494 1.5706 71.6401 0.934996 59.4341 0.934996V8.935ZM88.5791 10.82L87.2473 18.7084C94.0041 19.8491 98.0672 21.6774 100.325 23.5296L105.399 17.345L110.474 11.1604C105.191 6.82591 98.0407 4.30421 89.9109 2.93163L88.5791 10.82ZM105.399 17.345L100.325 23.5296C102.023 24.9236 103.054 26.7886 103.054 30.105H111.054H119.054C119.054 22.5947 116.315 15.9531 110.474 11.1604L105.399 17.345ZM113.874 105.795L117.501 98.6648L113.874 105.795ZM100.969 94.05L94.0631 98.0891L94.1084 98.1664L94.1554 98.2428L100.969 94.05ZM100.969 59.395L94.0538 55.3718L94.0263 55.4192L93.9994 55.4669L100.969 59.395ZM113.729 46.635L117.79 53.5273L113.729 46.635ZM148.529 45.62L152.278 38.5532L148.529 45.62ZM159.404 55.625L152.558 59.7644L152.579 59.8002L152.602 59.8358L159.404 55.625ZM154.909 84.335L159.06 91.1733L159.078 91.1629L159.095 91.1524L154.909 84.335ZM122.719 87.38L125.436 79.8556L103.99 72.1113L115.896 91.5572L122.719 87.38ZM145.774 93.47L147.483 101.285L147.599 101.26L147.714 101.231L145.774 93.47ZM154.184 94.63L149.016 100.737L149.127 100.831L149.241 100.921L154.184 94.63ZM150.704 106.81L154.712 113.733L154.779 113.694L154.846 113.654L150.704 106.81ZM123.154 69.69H115.154V72.0396L116.424 74.0161L123.154 69.69ZM126.634 72.735L123.251 79.9845L123.533 80.1162L123.825 80.2256L126.634 72.735ZM137.219 72.155L133.162 65.2595L133.07 65.314L132.979 65.371L137.219 72.155ZM137.509 63.89L132.065 69.7523L132.166 69.8457L132.269 69.9355L137.509 63.89ZM125.329 64.47L119.503 58.9871L119.498 58.9928L119.492 58.9985L125.329 64.47ZM132.869 110V102C126.778 102 121.723 100.813 117.501 98.6648L113.874 105.795L110.246 112.925C117.044 116.384 124.653 118 132.869 118V110ZM113.874 105.795L117.501 98.6648C113.238 96.4958 110.066 93.5695 107.782 89.8572L100.969 94.05L94.1554 98.2428C98.0575 104.584 103.489 109.488 110.246 112.925L113.874 105.795ZM100.969 94.05L107.874 90.0109C105.648 86.2046 104.474 81.8654 104.474 76.795H96.4736H88.4736C88.4736 84.4846 90.2961 91.6487 94.0631 98.0891L100.969 94.05ZM96.4736 76.795H104.474C104.474 71.8455 105.637 67.4044 107.938 63.3231L100.969 59.395L93.9994 55.4669C90.3065 62.0189 88.4736 69.1779 88.4736 76.795H96.4736ZM100.969 59.395L107.883 63.4181C110.272 59.3129 113.532 56.0369 117.79 53.5273L113.729 46.635L109.667 39.7427C103.099 43.6131 97.852 48.8437 94.0538 55.3718L100.969 59.395ZM113.729 46.635L117.79 53.5273C121.861 51.1286 126.573 49.85 132.144 49.85V41.85V33.85C123.988 33.85 116.423 35.7614 109.667 39.7427L113.729 46.635ZM132.144 41.85V49.85C137.225 49.85 141.363 50.8745 144.779 52.6868L148.529 45.62L152.278 38.5532C146.22 35.3388 139.435 33.85 132.144 33.85V41.85ZM148.529 45.62L144.779 52.6868C148.375 54.5947 150.869 56.9715 152.558 59.7644L159.404 55.625L166.249 51.4856C162.912 45.9652 158.156 41.672 152.278 38.5532L148.529 45.62ZM159.404 55.625L152.602 59.8358C154.392 62.7281 155.174 65.5363 155.174 68.385H163.174H171.174C171.174 62.3403 169.442 56.6419 166.206 51.4142L159.404 55.625ZM163.174 68.385H155.174C155.174 73.256 153.539 75.788 150.723 77.5176L154.909 84.335L159.095 91.1524C167.298 86.1153 171.174 78.014 171.174 68.385H163.174ZM154.909 84.335L150.757 77.4967C146.815 79.8897 141.836 81.265 135.479 81.265V89.265V97.265C144.202 97.265 152.175 95.3537 159.06 91.1733L154.909 84.335ZM135.479 89.265V81.265C131.068 81.265 127.794 80.7072 125.436 79.8556L122.719 87.38L120.001 94.9044C124.603 96.5661 129.835 97.265 135.479 97.265V89.265ZM122.719 87.38L115.896 91.5572C120.561 99.1772 128.272 102.485 137.074 102.485V94.485V86.485C132.535 86.485 130.676 85.0562 129.541 83.2028L122.719 87.38ZM137.074 94.485V102.485C140.442 102.485 143.92 102.065 147.483 101.285L145.774 93.47L144.064 85.6548C141.44 86.2288 139.118 86.485 137.074 86.485V94.485ZM145.774 93.47L147.714 101.231C148.317 101.08 148.775 101.035 149.109 101.035V93.035V85.035C147.316 85.035 145.551 85.2796 143.833 85.7089L145.774 93.47ZM149.109 93.035V101.035C149.515 101.035 149.641 101.087 149.574 101.066C149.537 101.054 149.459 101.026 149.353 100.969C149.246 100.911 149.13 100.833 149.016 100.737L154.184 94.63L159.351 88.5229C156.272 85.9172 152.564 85.035 149.109 85.035V93.035ZM154.184 94.63L149.241 100.921C149.008 100.737 148.688 100.394 148.457 99.8981C148.233 99.4178 148.214 99.0581 148.214 98.98H156.214H164.214C164.214 94.8787 162.555 91.0333 159.126 88.3395L154.184 94.63ZM156.214 98.98H148.214C148.214 98.8968 148.229 98.7804 148.267 98.6645C148.303 98.5532 148.334 98.5238 148.294 98.5811C148.191 98.7267 147.761 99.2401 146.561 99.966L150.704 106.81L154.846 113.654C159.776 110.67 164.214 105.889 164.214 98.98H156.214ZM150.704 106.81L146.695 99.8866C144.926 100.911 140.77 102 132.869 102V110V118C141.401 118 149.135 116.962 154.712 113.733L150.704 106.81ZM123.154 69.69L116.424 74.0161C118.106 76.6329 120.424 78.6652 123.251 79.9845L126.634 72.735L130.017 65.4855C129.979 65.4681 129.959 65.4557 129.952 65.4508C129.944 65.4461 129.943 65.4446 129.944 65.4456C129.945 65.4467 129.942 65.4444 129.935 65.4352C129.927 65.4259 129.909 65.4039 129.883 65.3639L123.154 69.69ZM126.634 72.735L123.825 80.2256C126.364 81.1781 129.02 81.605 131.709 81.605V73.605V65.605C130.724 65.605 129.996 65.4519 129.443 65.2444L126.634 72.735ZM131.709 73.605V81.605C135.081 81.605 138.442 80.8246 141.459 78.939L137.219 72.155L132.979 65.371C132.902 65.4187 132.589 65.605 131.709 65.605V73.605ZM137.219 72.155L141.275 79.0505C144.699 77.0365 147.684 73.4597 147.684 68.385H139.684H131.684C131.684 67.6528 131.905 66.8236 132.372 66.1095C132.792 65.4667 133.2 65.2372 133.162 65.2595L137.219 72.155ZM139.684 68.385H147.684C147.684 64.0697 145.749 60.4452 142.748 57.8445L137.509 63.89L132.269 69.9355C132.298 69.9601 132.116 69.8077 131.939 69.4407C131.751 69.054 131.684 68.6656 131.684 68.385H139.684ZM137.509 63.89L142.952 58.0276C139.604 54.9185 135.358 54.005 131.564 54.005V62.005V70.005C132.248 70.005 132.551 70.0898 132.589 70.1021C132.602 70.1059 132.543 70.0886 132.439 70.0298C132.333 69.9696 132.201 69.8786 132.065 69.7523L137.509 63.89ZM131.564 62.005V54.005C127.125 54.005 122.802 55.4818 119.503 58.9871L125.329 64.47L131.154 69.9529C131.155 69.9523 131.149 69.9586 131.136 69.9694C131.124 69.9803 131.107 69.9933 131.087 70.007C131.043 70.0366 131.006 70.054 130.989 70.0609C130.948 70.0769 131.099 70.005 131.564 70.005V62.005ZM125.329 64.47L119.492 58.9985C116.798 61.872 115.154 65.5201 115.154 69.69H123.154H131.154C131.154 69.7097 131.151 69.7579 131.138 69.8253C131.125 69.8932 131.105 69.9578 131.082 70.0119C131.06 70.0652 131.044 70.0887 131.049 70.0812C131.054 70.0724 131.087 70.0246 131.165 69.9415L125.329 64.47ZM217.003 107.1L210.907 112.281L210.98 112.368L211.056 112.452L217.003 107.1ZM213.958 99.995L221.883 98.9019V98.9019L213.958 99.995ZM196.268 75.925L189.203 72.1718L189.18 72.2137L189.159 72.2559L196.268 75.925ZM193.513 99.995L185.562 99.1115L193.513 99.995ZM190.613 106.955L196.708 112.136L196.77 112.063L196.831 111.989L190.613 106.955ZM170.893 99.27L163.253 101.644L163.258 101.659L163.262 101.674L170.893 99.27ZM188.873 41.415L183.961 47.7298L184.073 47.8171L184.189 47.9004L188.873 41.415ZM192.498 46.925L184.794 49.082L188.644 62.832L198.36 52.3686L192.498 46.925ZM198.298 43.3L195.372 35.854L195.326 35.8723L195.279 35.8913L198.298 43.3ZM230.633 53.305L224.002 57.7808L224.021 57.8091L224.04 57.8372L230.633 53.305ZM235.563 103.33L242.84 106.652L242.854 106.623L242.867 106.594L235.563 103.33ZM224.833 110V102C223.813 102 223.268 101.856 223.044 101.773C222.866 101.707 222.892 101.685 222.949 101.748L217.003 107.1L211.056 112.452C214.779 116.588 219.889 118 224.833 118V110ZM217.003 107.1L223.098 101.919C222.553 101.277 222.086 100.376 221.883 98.9019L213.958 99.995L206.033 101.088C206.603 105.221 208.166 109.056 210.907 112.281L217.003 107.1ZM213.958 99.995L221.883 98.9019C221.566 96.6044 221.378 93.3822 221.378 89.12H213.378H205.378C205.378 93.7512 205.576 97.779 206.033 101.088L213.958 99.995ZM213.378 89.12H221.378C221.378 82.8851 220.564 77.0482 218.213 72.3473L211.058 75.925L203.902 79.5027C204.645 80.9884 205.378 83.9483 205.378 89.12H213.378ZM211.058 75.925L218.213 72.3473C216.889 69.6998 214.937 67.3124 212.205 65.6317C209.477 63.9528 206.47 63.285 203.518 63.285V71.285V79.285C203.796 79.285 203.926 79.3158 203.947 79.3212C203.961 79.3246 203.905 79.3104 203.82 79.2583C203.735 79.206 203.693 79.1598 203.696 79.163C203.704 79.1723 203.784 79.2659 203.902 79.5027L211.058 75.925ZM203.518 71.285V63.285C200.571 63.285 197.637 64.0192 195 65.7068C192.403 67.3692 190.528 69.6765 189.203 72.1718L196.268 75.925L203.333 79.6782C203.493 79.3761 203.614 79.2222 203.666 79.163C203.713 79.1091 203.702 79.1337 203.625 79.1832C203.545 79.2347 203.459 79.27 203.398 79.2869C203.342 79.3023 203.37 79.285 203.518 79.285V71.285ZM196.268 75.925L189.159 72.2559C186.784 76.8571 185.948 82.4639 185.948 88.395H193.948H201.948C201.948 83.6927 202.658 80.9863 203.377 79.5941L196.268 75.925ZM193.948 88.395H185.948C185.948 93.4445 185.801 96.9538 185.562 99.1115L193.513 99.995L201.464 100.878C201.804 97.8161 201.948 93.5921 201.948 88.395H193.948ZM193.513 99.995L185.562 99.1115C185.44 100.21 185.07 101.087 184.395 101.921L190.613 106.955L196.831 111.989C199.442 108.763 201.006 105 201.464 100.878L193.513 99.995ZM190.613 106.955L184.517 101.774C184.72 101.535 184.87 101.521 184.659 101.596C184.392 101.692 183.73 101.855 182.493 101.855V109.855V117.855C187.449 117.855 192.927 116.585 196.708 112.136L190.613 106.955ZM182.493 109.855V101.855C181.618 101.855 181.229 101.643 180.853 101.299C180.305 100.799 179.377 99.5758 178.523 96.866L170.893 99.27L163.262 101.674C164.632 106.021 166.749 110.09 170.068 113.118C173.558 116.303 177.858 117.855 182.493 117.855V109.855ZM170.893 99.27L178.532 96.8956C176.603 90.69 175.558 83.1616 175.558 74.185H167.558H159.558C159.558 84.3484 160.735 93.5433 163.253 101.644L170.893 99.27ZM167.558 74.185H175.558C175.558 62.904 176.78 55.4952 178.593 51.1881C179.464 49.1161 180.292 48.2043 180.763 47.8311C181.112 47.5541 181.477 47.385 182.203 47.385V39.385V31.385C178.046 31.385 174.14 32.6659 170.828 35.2889C167.638 37.8157 165.414 41.2538 163.845 44.9819C160.776 52.2748 159.558 62.2659 159.558 74.185H167.558ZM182.203 39.385V47.385C183.546 47.385 183.922 47.6991 183.961 47.7298L188.873 41.415L193.784 35.1002C190.344 32.4242 186.273 31.385 182.203 31.385V39.385ZM188.873 41.415L184.189 47.9004C184.222 47.9242 184.519 48.1001 184.794 49.082L192.498 46.925L200.201 44.768C199.123 40.9165 197.004 37.4192 193.557 34.9296L188.873 41.415ZM192.498 46.925L198.36 52.3686C198.517 52.1999 199.272 51.5416 201.316 50.7087L198.298 43.3L195.279 35.8913C192.104 37.1851 188.992 38.9434 186.635 41.4814L192.498 46.925ZM198.298 43.3L201.223 50.746C202.969 50.0599 204.826 49.705 206.853 49.705V41.705V33.705C202.886 33.705 199.039 34.4134 195.372 35.854L198.298 43.3ZM206.853 41.705V49.705C215.26 49.705 220.496 52.5868 224.002 57.7808L230.633 53.305L237.263 48.8292C230.329 38.5565 219.712 33.705 206.853 33.705V41.705ZM230.633 53.305L224.04 57.8372C228.134 63.7917 230.608 72.5039 230.608 84.77H238.608H246.608C246.608 70.5494 243.765 58.285 237.225 48.7728L230.633 53.305ZM238.608 84.77H230.608C230.608 92.0507 229.642 96.97 228.259 100.066L235.563 103.33L242.867 106.594C245.543 100.603 246.608 93.1493 246.608 84.77H238.608ZM235.563 103.33L228.285 100.008C227.816 101.034 227.38 101.385 227.134 101.538C226.863 101.707 226.226 102 224.833 102V110V118C228.563 118 232.275 117.182 235.581 115.127C238.911 113.057 241.279 110.072 242.84 106.652L235.563 103.33ZM250.571 105.795L254.468 98.8081L250.571 105.795ZM245.931 88.25L250.929 94.4969L250.947 94.4825L250.965 94.468L245.931 88.25ZM257.821 86.51L254.511 93.7929L257.821 86.51ZM261.011 88.54L266.279 82.5194L266.18 82.4322L266.077 82.3483L261.011 88.54ZM262.896 89.99L258.78 96.8499L259.044 97.008L259.319 97.1454L262.896 89.99ZM266.376 85.205L261.671 91.6749L261.872 91.821L262.081 91.9543L266.376 85.205ZM260.866 82.45L263.885 75.0413L263.861 75.0316L263.837 75.0222L260.866 82.45ZM256.081 80.42L259.659 73.2646L259.596 73.2332L259.533 73.2029L256.081 80.42ZM246.221 72.88L239.77 77.6109L246.221 72.88ZM246.946 53.16L240.699 48.1624L240.69 48.1737L240.681 48.1849L246.946 53.16ZM258.256 45.04L261.354 52.4159L261.39 52.4009L261.425 52.3857L258.256 45.04ZM290.156 44.17L287.528 51.726L287.553 51.7347L287.578 51.7432L290.156 44.17ZM300.886 50.55L295.128 56.1031L295.178 56.1554L295.229 56.2068L300.886 50.55ZM301.901 66.065L296.904 59.818L296.825 59.8809L296.748 59.9457L301.901 66.065ZM291.316 68.095L288.165 75.4482L288.754 75.7007L289.376 75.8561L291.316 68.095ZM288.561 66.79L284.592 73.7359L284.785 73.8461L284.984 73.9454L288.561 66.79ZM286.386 65.775L283.235 73.1282L283.404 73.2008L283.577 73.2656L286.386 65.775ZM282.036 66.21L287.158 72.3558L287.436 72.1235L287.693 71.8669L282.036 66.21ZM284.356 71.285L286.847 63.6825L286.814 63.6719L286.782 63.6616L284.356 71.285ZM297.841 78.245L292.737 84.4052L292.78 84.4404L292.823 84.475L297.841 78.245ZM294.216 104.635L290.067 97.7949L290.042 97.8102L290.017 97.8256L294.216 104.635ZM270.871 110V102C263.123 102 257.868 100.704 254.468 98.8081L250.571 105.795L246.675 112.782C253.328 116.493 261.606 118 270.871 118V110ZM250.571 105.795L254.468 98.8081C251.111 96.9359 251.031 95.5961 251.031 94.92H243.031H235.031C235.031 103.137 239.978 109.047 246.675 112.782L250.571 105.795ZM243.031 94.92H251.031C251.031 94.3561 251.124 94.1952 251.093 94.2673C251.078 94.301 251.048 94.356 251.003 94.4146C250.959 94.4725 250.926 94.4992 250.929 94.4969L245.931 88.25L240.934 82.0031C236.766 85.337 235.031 90.0558 235.031 94.92H243.031ZM245.931 88.25L250.965 94.468C251.319 94.1813 252.003 93.785 253.616 93.785V85.785V77.785C249.043 77.785 244.604 79.0321 240.898 82.032L245.931 88.25ZM253.616 85.785V93.785C254.127 93.785 254.447 93.8214 254.613 93.8499C254.781 93.8789 254.719 93.8875 254.511 93.7929L257.821 86.51L261.132 79.2271C258.647 78.0978 255.988 77.785 253.616 77.785V85.785ZM257.821 86.51L254.511 93.7929C254.845 93.9449 255.326 94.225 255.945 94.7317L261.011 88.54L266.077 82.3483C264.57 81.115 262.924 80.0418 261.132 79.2271L257.821 86.51ZM261.011 88.54L255.743 94.5606C256.634 95.3401 257.684 96.1923 258.78 96.8499L262.896 89.99L267.012 83.1301C267.116 83.1923 267.1 83.192 266.94 83.069C266.792 82.9548 266.574 82.7773 266.279 82.5194L261.011 88.54ZM262.896 89.99L259.319 97.1454C261.204 98.088 263.148 98.425 264.926 98.425V90.425V82.425C265.158 82.425 265.749 82.472 266.474 82.8346L262.896 89.99ZM264.926 90.425V98.425C266.652 98.425 269.383 98.1603 271.86 96.3911C274.833 94.2676 275.971 91.0777 275.971 88.25H267.971H259.971C259.971 87.6828 260.072 86.8032 260.531 85.8185C261.011 84.7914 261.738 83.9583 262.56 83.3714C264.022 82.3272 265.23 82.425 264.926 82.425V90.425ZM267.971 88.25H275.971C275.971 84.4032 274.239 80.7261 270.671 78.4557L266.376 85.205L262.081 91.9543C261.554 91.6188 260.933 91.0386 260.486 90.1858C260.052 89.3574 259.971 88.6326 259.971 88.25H267.971ZM266.376 85.205L271.082 78.7351C269.182 77.3534 266.573 76.1367 263.885 75.0413L260.866 82.45L257.848 89.8587C259.028 90.3393 259.941 90.7506 260.624 91.0917C260.961 91.2606 261.217 91.3997 261.403 91.508C261.593 91.6191 261.672 91.6757 261.671 91.6749L266.376 85.205ZM260.866 82.45L263.837 75.0222C261.368 74.0345 260.085 73.4775 259.659 73.2646L256.081 80.42L252.504 87.5754C253.624 88.1358 255.531 88.9322 257.895 89.8778L260.866 82.45ZM256.081 80.42L259.533 73.2029C255.856 71.4445 253.784 69.6652 252.672 68.1491L246.221 72.88L239.77 77.6109C242.912 81.8948 247.413 85.1422 252.63 87.6371L256.081 80.42ZM246.221 72.88L252.672 68.1491C251.452 66.485 251.031 65.0236 251.031 63.6H243.031H235.031C235.031 68.7497 236.737 73.475 239.77 77.6109L246.221 72.88ZM243.031 63.6H251.031C251.031 61.9867 251.556 60.2189 253.211 58.1351L246.946 53.16L240.681 48.1849C237.116 52.6744 235.031 57.8666 235.031 63.6H243.031ZM246.946 53.16L253.193 58.1576C254.907 56.0154 257.496 54.0364 261.354 52.4159L258.256 45.04L255.158 37.6641C249.35 40.1036 244.399 43.538 240.699 48.1624L246.946 53.16ZM258.256 45.04L261.425 52.3857C265.184 50.764 269.729 49.85 275.221 49.85V41.85V33.85C267.953 33.85 261.188 35.0627 255.088 37.6943L258.256 45.04ZM275.221 41.85V49.85C279.986 49.85 284.057 50.5185 287.528 51.726L290.156 44.17L292.784 36.614C287.363 34.7281 281.477 33.85 275.221 33.85V41.85ZM290.156 44.17L287.578 51.7432C291.24 52.9897 293.612 54.5317 295.128 56.1031L300.886 50.55L306.645 44.9969C302.94 41.155 298.16 38.4437 292.734 36.5968L290.156 44.17ZM300.886 50.55L295.229 56.2068C296.594 57.5717 296.801 58.5172 296.801 59.25H304.801H312.801C312.801 53.6028 310.398 48.7483 306.543 44.8931L300.886 50.55ZM304.801 59.25H296.801C296.801 59.8966 296.697 60.1112 296.715 60.0688C296.724 60.0475 296.751 59.9943 296.799 59.9304C296.848 59.8666 296.89 59.829 296.904 59.818L301.901 66.065L306.899 72.312C311.132 68.9254 312.801 64.1105 312.801 59.25H304.801ZM301.901 66.065L296.748 59.9457C296.727 59.9639 296.615 60.0577 296.286 60.1588C295.934 60.2672 295.322 60.385 294.361 60.385V68.385V76.385C298.812 76.385 303.36 75.2952 307.054 72.1843L301.901 66.065ZM294.361 68.385V60.385C293.931 60.385 293.621 60.3681 293.416 60.3485C293.203 60.3282 293.165 60.311 293.257 60.3339L291.316 68.095L289.376 75.8561C291.039 76.2719 292.78 76.385 294.361 76.385V68.385ZM291.316 68.095L294.468 60.7418C294.004 60.5429 293.247 60.1885 292.139 59.6346L288.561 66.79L284.984 73.9454C286.196 74.5515 287.276 75.0671 288.165 75.4482L291.316 68.095ZM288.561 66.79L292.53 59.8441C291.461 59.2329 290.346 58.7157 289.195 58.2844L286.386 65.775L283.577 73.2656C283.974 73.4143 284.308 73.5738 284.592 73.7359L288.561 66.79ZM286.386 65.775L289.538 58.4218C287.701 57.6348 285.826 57.34 284.066 57.34V65.34V73.34C284.047 73.34 283.718 73.3352 283.235 73.1282L286.386 65.775ZM284.066 65.34V57.34C281.033 57.34 278.359 58.5739 276.379 60.5531L282.036 66.21L287.693 71.8669C287.345 72.2145 286.828 72.6114 286.13 72.9107C285.423 73.2138 284.707 73.34 284.066 73.34V65.34ZM282.036 66.21L276.915 60.0642C274.46 62.1097 273.166 65.014 273.166 68.095H281.166H289.166C289.166 68.7292 289.042 69.5418 288.647 70.3962C288.251 71.2559 287.696 71.9071 287.158 72.3558L282.036 66.21ZM281.166 68.095H273.166C273.166 71.028 274.337 73.667 276.307 75.6368C278.075 77.4047 280.192 78.3553 281.931 78.9084L284.356 71.285L286.782 63.6616C286.394 63.5381 286.916 63.6186 287.621 64.3231C288.009 64.7113 288.426 65.2657 288.733 65.9929C289.043 66.7258 289.166 67.4547 289.166 68.095H281.166ZM284.356 71.285L281.866 78.8875C286.826 80.5124 290.342 82.4207 292.737 84.4052L297.841 78.245L302.945 72.0848C298.574 68.4627 293.1 65.731 286.847 63.6825L284.356 71.285ZM297.841 78.245L292.823 84.475C294.206 85.5898 295.061 87.0513 295.061 89.845H303.061H311.061C311.061 82.7787 308.436 76.5069 302.86 72.015L297.841 78.245ZM303.061 89.845H295.061C295.061 93.0188 293.854 95.4984 290.067 97.7949L294.216 104.635L298.365 111.475C306.372 106.618 311.061 99.2379 311.061 89.845H303.061ZM294.216 104.635L290.017 97.8256C285.913 100.357 279.76 102 270.871 102V110V118C281.509 118 290.92 116.067 298.415 111.444L294.216 104.635ZM318.226 15.315L311.418 11.1141L311.405 11.1347L311.393 11.1554L318.226 15.315ZM345.921 15.025L339.197 19.3586L339.23 19.4109L339.265 19.4626L345.921 15.025ZM348.821 47.94L356.725 49.175L356.727 49.1657L356.728 49.1564L348.821 47.94ZM344.761 64.615L352.288 67.3248L352.297 67.3012L352.305 67.2776L344.761 64.615ZM340.266 70.995L345.473 77.069L345.484 77.0593L345.495 77.0496L340.266 70.995ZM324.171 70.995L318.942 77.0496L319.023 77.1192L319.105 77.1867L324.171 70.995ZM319.676 64.615L327.203 61.9052L319.676 64.615ZM315.616 48.375L307.715 49.6291L307.717 49.639L307.718 49.6489L315.616 48.375ZM342.731 104.78L348.388 110.437L342.731 104.78ZM321.561 104.78L327.218 99.1231L321.561 104.78ZM342.731 83.61L348.388 77.9531L342.731 83.61ZM318.226 15.315L325.034 19.5159C326.03 17.9031 327.751 16.5 332.291 16.5V8.49999V0.499993C323.685 0.499993 316.029 3.64022 311.418 11.1141L318.226 15.315ZM332.291 8.49999V16.5C336.526 16.5 338.196 17.8059 339.197 19.3586L345.921 15.025L352.646 10.6914C348.04 3.54413 340.623 0.499993 332.291 0.499993V8.49999ZM345.921 15.025L339.265 19.4626C341.138 22.2726 342.271 25.9275 342.271 30.83H350.271H358.271C358.271 23.3591 356.504 16.4774 352.578 10.5874L345.921 15.025ZM350.271 30.83H342.271C342.271 35.4629 341.833 40.7512 340.914 46.7235L348.821 47.94L356.728 49.1564C357.743 42.5622 358.271 36.4438 358.271 30.83H350.271ZM348.821 47.94L340.917 46.705C340.012 52.4977 338.765 57.5664 337.217 61.9524L344.761 64.615L352.305 67.2776C354.237 61.8036 355.697 55.7556 356.725 49.175L348.821 47.94ZM344.761 64.615L337.234 61.9052C336.873 62.9086 336.224 63.9159 335.037 64.9404L340.266 70.995L345.495 77.0496C348.562 74.4008 350.91 71.1548 352.288 67.3248L344.761 64.615ZM340.266 70.995L335.06 64.9209C334.791 65.1512 334.123 65.605 332.291 65.605V73.605V81.605C337.033 81.605 341.681 80.3188 345.473 77.069L340.266 70.995ZM332.291 73.605V65.605C330.474 65.605 329.668 65.1556 329.237 64.8033L324.171 70.995L319.105 77.1867C322.928 80.3144 327.535 81.605 332.291 81.605V73.605ZM324.171 70.995L329.4 64.9404C328.214 63.9159 327.565 62.9086 327.203 61.9052L319.676 64.615L312.149 67.3248C313.528 71.1548 315.875 74.4008 318.942 77.0496L324.171 70.995ZM319.676 64.615L327.203 61.9052C325.658 57.6129 324.416 52.6908 323.514 47.1011L315.616 48.375L307.718 49.6489C308.75 56.0458 310.214 61.9504 312.149 67.3248L319.676 64.615ZM315.616 48.375L323.517 47.1209C322.601 41.3476 322.166 36.2662 322.166 31.845H314.166H306.166C306.166 37.2838 306.698 43.2224 307.715 49.6291L315.616 48.375ZM314.166 31.845H322.166C322.166 26.3575 323.293 22.3778 325.06 19.4746L318.226 15.315L311.393 11.1554C307.746 17.1455 306.166 24.1858 306.166 31.845H314.166ZM342.731 104.78L337.074 99.1231C335.505 100.693 333.983 101.275 332.146 101.275V109.275V117.275C338.429 117.275 343.964 114.861 348.388 110.437L342.731 104.78ZM332.146 109.275V101.275C330.309 101.275 328.788 100.693 327.218 99.1231L321.561 104.78L315.904 110.437C320.328 114.861 325.863 117.275 332.146 117.275V109.275ZM321.561 104.78L327.218 99.1231C325.648 97.5535 325.066 96.0318 325.066 94.195H317.066H309.066C309.066 100.478 311.481 106.013 315.904 110.437L321.561 104.78ZM317.066 94.195H325.066C325.066 92.3582 325.648 90.8365 327.218 89.2669L321.561 83.61L315.904 77.9531C311.481 82.3768 309.066 87.9118 309.066 94.195H317.066ZM321.561 83.61L327.218 89.2669C328.788 87.6972 330.309 87.115 332.146 87.115V79.115V71.115C325.863 71.115 320.328 73.5295 315.904 77.9531L321.561 83.61ZM332.146 79.115V87.115C333.983 87.115 335.505 87.6972 337.074 89.2669L342.731 83.61L348.388 77.9531C343.964 73.5295 338.429 71.115 332.146 71.115V79.115ZM342.731 83.61L337.074 89.2669C338.644 90.8365 339.226 92.3582 339.226 94.195H347.226H355.226C355.226 87.9118 352.812 82.3768 348.388 77.9531L342.731 83.61ZM347.226 94.195H339.226C339.226 96.0318 338.644 97.5535 337.074 99.1231L342.731 104.78L348.388 110.437C352.812 106.013 355.226 100.478 355.226 94.195H347.226Z" fill="black" mask="url(#path-1-outside-1_2300_446)"/>
</svg>
