<svg width="99" height="116" viewBox="0 0 99 116" fill="none" xmlns="http://www.w3.org/2000/svg">
<path d="M90.668 104.675C80.6678 114.175 77.1684 112.175 63.6684 113.175C50.1683 114.175 4.66694 87.1749 3.66763 82.1749C-0.329637 62.1746 14.3346 70.3416 28.668 75.1749L9.16797 15.6749C5.66797 7.1746 12.668 -5.82521 22.668 11.675C29.2218 23.1444 31.6677 27.1749 35.6677 34.6749C35.6677 34.6749 37.7624 30.9831 42.6677 29.6749C50.1676 27.6749 58.3226 38.152 56.668 35.6749C56 34.6749 51.3217 31.5905 55.168 30.6748C60.2182 29.4724 64.4197 30.5832 67.4208 32.0603C66.7335 31.0165 67.1217 30.0557 70.168 29.6749C78.168 28.6749 85.4982 34.9425 87.168 38.6748C95.6683 57.6748 100.668 95.1746 90.668 104.675Z" fill="white" stroke="black" stroke-width="5"/>
</svg>
